<?xml version="1.0" encoding="UTF-8" standalone="no"?>
<!-- Created with Inkscape (http://www.inkscape.org/) -->

<svg
   width="128.00002"
   height="127.99999"
   viewBox="0 0 33.866671 33.866665"
   version="1.1"
   id="svg1"
   inkscape:version="1.4 (e7c3feb100, 2024-10-09)"
   sodipodi:docname="com.mastropaolo.www.tabela.svg"
   xmlns:inkscape="http://www.inkscape.org/namespaces/inkscape"
   xmlns:sodipodi="http://sodipodi.sourceforge.net/DTD/sodipodi-0.dtd"
   xmlns:xlink="http://www.w3.org/1999/xlink"
   xmlns="http://www.w3.org/2000/svg"
   xmlns:svg="http://www.w3.org/2000/svg">
  <sodipodi:namedview
     id="namedview1"
     pagecolor="#ffffff"
     bordercolor="currentColor"
     borderopacity="0.25"
     inkscape:showpageshadow="2"
     inkscape:pageopacity="0.0"
     inkscape:pagecheckerboard="0"
     inkscape:deskcolor="#d1d1d1"
     inkscape:document-units="px"
     inkscape:zoom="4"
     inkscape:cx="-62.25"
     inkscape:cy="54.125"
     inkscape:window-width="2560"
     inkscape:window-height="1334"
     inkscape:window-x="0"
     inkscape:window-y="0"
     inkscape:window-maximized="1"
     inkscape:current-layer="layer1" />
  <defs
     id="defs1">
    <linearGradient
       id="linearGradient2"
       inkscape:collect="always">
      <stop
         style="stop-color:#ba5cff;stop-opacity:1;"
         offset="0"
         id="stop2" />
      <stop
         style="stop-color:#ffffff;stop-opacity:1;"
         offset="1"
         id="stop3" />
    </linearGradient>
    <linearGradient
       inkscape:collect="always"
       xlink:href="#linearGradient2"
       id="linearGradient3"
       x1="39.655212"
       y1="145.67813"
       x2="58.769798"
       y2="165.47186"
       gradientUnits="userSpaceOnUse" />
  </defs>
  <g
     inkscape:label="Layer 1"
     inkscape:groupmode="layer"
     id="layer1"
     transform="translate(-32.279167,-138.64166)">
    <rect
       ry="2.096508"
       rx="2.096508"
       y="141.94769"
       x="35.585205"
       height="27.254602"
       width="27.254602"
       id="rect2896"
       style="display:inline;opacity:1;fill:url(#linearGradient3);fill-opacity:1;stroke:#000000;stroke-width:0.2619375;stroke-linecap:butt;stroke-linejoin:miter;stroke-miterlimit:4;stroke-dasharray:none;stroke-dashoffset:0;stroke-opacity:0.65627372;marker:none;marker-start:none;marker-mid:none;marker-end:none;paint-order:normal;enable-background:new" />
    <g
       fill="#222222"
       id="g4"
       transform="matrix(0.85951447,0,0,0.92791435,37.051791,142.54925)"
       style="fill:#222222;fill-opacity:1">
      <path
         d="M 3.03125,1 C 1.363281,1 0,2.363281 0,4.03125 v 7.9375 C 0,13.636719 1.363281,15 3.03125,15 h 9 c 1.667969,0 3.03125,-1.363281 3.03125,-3.03125 V 4.03125 C 15.0625,2.363281 13.699219,1 12.03125,1 Z m 4,1 h 1 v 2 h -1 z M 2,5 h 11.0625 v 6.96875 C 13.0625,12.566406 12.628906,13 12.03125,13 h -9 C 2.433594,13 2,12.566406 2,11.96875 Z m 0,0"
         id="path1"
         style="fill:#222222;fill-opacity:1" />
      <path
         d="M 6.929688,5 H 8.03125 v 9 H 6.929688 Z m 0,0"
         id="path2"
         style="fill:#222222;fill-opacity:1" />
      <path
         d="m 1.03125,7 h 13 v 1 h -13 z m 0,0"
         id="path3"
         style="fill:#222222;fill-opacity:1" />
      <path
         d="m 1.03125,10 h 13 v 1 h -13 z m 0,0"
         id="path4"
         style="fill:#222222;fill-opacity:1" />
    </g>
    <path
       d="m 47.451281,154.61357 v 1.84718 h 13.627018 v -1.84718 z m 0,2.7708 v 6.46527 h 1.703379 v -4.19593 l 1.783222,4.19593 h 1.543685 l 1.783226,-4.19593 v 4.19593 h 1.703374 v -6.46527 h -2.555065 l -1.703376,3.69444 -1.703378,-3.69444 z m 8.516886,3.69444 2.555067,2.77083 2.555065,-2.77083 h -1.703375 v -3.69444 h -1.703379 v 3.69444 z m -8.516886,3.69441 v 1.84723 h 13.627018 v -1.84723 z m 0,0"
       fill="#222222"
       id="path1-5"
       style="stroke-width:0.88692" />
  </g>
</svg>
